<svg id="table" viewBox="0 0 800 540" xmlns="http://www.w3.org/2000/svg">
  <g id="bg">
    <rect id="color" width="800" height="540" fill="rgba(26,26,26,1.0)"/>
  </g>
  <g id="shadow">
    <ellipse id="shadow1" cx="400" cy="254" rx="335" ry="215" fill="rgba(0,0,0,0.06)"/>
    <ellipse id="shadow2" cx="400" cy="249" rx="330" ry="210" fill="rgba(0,0,0,0.08)"/>
    <ellipse id="shadow3" cx="400" cy="244" rx="326" ry="205" fill="rgba(0,0,0,0.1)"/>
    <ellipse id="shadow4" cx="400" cy="239" rx="322" ry="200" fill="rgba(0,0,0,0.12)"/>
  </g>
  <ellipse id="color" cx="400" cy="234" rx="300" ry="175" fill="rgba(90,0,9,0.71)"/>
  <path
    id="logoBG"
    d="M648,286c-4-7-18-2-25-5s-44-35-57-48c-1-1,0-2,2-2,24-4,37,17,41,22s1,9,10,13,9-3-3-16-15-28-41-33c0,0-29-6-28-11s0-11-2-14,3-8,10-2,35,24,58,34c9,4,7,0,4-3s-22-9-22-12,14,7,26,10,22,2,16-5-21-18-23-23-20-24-29-22-11-4-14-6-46-30-83-28-97,22-148,14-68,30-68,30c-26,15-54-21-86-21a1,1,0,1,0,0,2c35,2,57,36,76,27,1,0,3,1,2,2s-11,11-15,10-16-8-24-9-29,3-45-1-23,1-13,5,35,2,56,6c1,0,1,2,0,2s-10,0-14,1-25,15-41,17-21,10-10,10c27,2,40-26,83-16s48,12,81-11c68-46,104,51,186,6,3-2,6,0,6,6s7,9,20,10c1,0-3,8,20,19,12,6,25,17,40,31,15,3,14,12,32,14s19,2,22-1S648,286,648,286ZM469,189c0,3-1,18,9,23-9-2-19,3-19,3s7-6,7-25c-3,15-22,14-25,1s17-23,25-45c2,20,23,21,26,37S472,201,469,189Z"
    fill="rgba(255,255,255,0.03)"/>
  <g id="cardNicks">
    <path id="line2" d="M226.506,282H177.358a.855.855,0,0,1-.852-.852V277a1,1,0,0,0-2,0v5.8a1.2,1.2,0,0,0,1.2,1.2h50.8a1,1,0,0,0,1-1h0A1,1,0,0,0,226.506,282Z" fill="rgba(255,255,255,0.46)"/>
    <path id="line1" d="M274.506,282h49.148a.855.855,0,0,0,.852-.852V277a1,1,0,0,1,2,0v5.8a1.2,1.2,0,0,1-1.2,1.2h-50.8a1,1,0,0,1-1-1h0A1,1,0,0,1,274.506,282Z" fill="rgba(255,255,255,0.46)"/>
    <path
      id="trap"
      d="M236.625,279.542h-2.4v-1.319H240.7v1.319h-2.4v7.052h-1.679Zm5.6-1.319h1.812c1.8,0,3.945-.061,3.945,2.267a1.914,1.914,0,0,1-1.727,1.942v.024c.455.036.72.491.887.863l1.344,3.274h-1.871l-1.008-2.614c-.239-.624-.455-.864-1.163-.864h-.539v3.479h-1.68Zm1.68,3.574h.551c.828,0,1.775-.12,1.775-1.164,0-1.007-.936-1.091-1.775-1.091h-.551Zm8.795-3.574h1.9l3.286,8.371h-1.859l-.72-1.919h-3.394l-.731,1.919h-1.739Zm.924,1.679H253.6l-1.211,3.454h2.446Zm5.8-1.679h2.123c1.823,0,3.49.527,3.49,2.53,0,1.955-1.428,2.662-3.227,2.662H261.1v3.179h-1.68Zm1.68,3.874h.587c.84,0,1.6-.276,1.6-1.248s-.731-1.307-1.6-1.307H261.1Z"
      fill="rgba(255,255,255,0.46)"/>
    <path
      id="puppy"
      d="M356.985,278.223h2.123c1.823,0,3.49.527,3.49,2.53,0,1.955-1.428,2.662-3.227,2.662h-.707v3.179h-1.68Zm1.68,3.874h.587c.84,0,1.6-.276,1.6-1.248s-.731-1.307-1.6-1.307h-.587Zm5.677-3.874h1.679v4.833c0,1.427.456,2.362,1.739,2.362s1.739-.936,1.739-2.362v-4.833h1.679v5.349c0,2.243-1.271,3.166-3.418,3.166s-3.418-.923-3.418-3.166Zm9.18,0h2.123c1.823,0,3.49.527,3.49,2.53,0,1.955-1.428,2.662-3.227,2.662H375.2v3.179h-1.68Zm1.68,3.874h.587c.84,0,1.6-.276,1.6-1.248s-.731-1.307-1.6-1.307H375.2Zm5.592-3.874h2.123c1.823,0,3.49.527,3.49,2.53,0,1.955-1.428,2.662-3.227,2.662h-.707v3.179h-1.68Zm1.68,3.874h.587c.84,0,1.6-.276,1.6-1.248s-.731-1.307-1.6-1.307h-.587Zm7.955,1.187-3.059-5.061h1.967l1.979,3.514,2.015-3.514h1.775l-3,5.061v3.311h-1.679Z"
      fill="rgba(255,255,255,0.46)"/>
    <path
      id="chase"
      d="M412.562,286.474a8.461,8.461,0,0,1-1.907.264c-2.71,0-4.594-1.354-4.594-4.186,0-2.866,1.752-4.474,4.594-4.474a5.55,5.55,0,0,1,1.9.348l-.12,1.416a3.453,3.453,0,0,0-1.812-.444,2.8,2.8,0,0,0-2.806,3.034,2.757,2.757,0,0,0,2.842,2.986,4.665,4.665,0,0,0,1.835-.348Zm1.84-8.251h1.679V281.6h3.358v-3.382h1.679v8.371h-1.679v-3.67h-3.358v3.67H414.4Zm11.662,0h1.895l3.286,8.371h-1.858l-.72-1.919h-3.395l-.731,1.919H422.8Zm.923,1.679h-.023l-1.212,3.454H428.2Zm10.439-.144a4.323,4.323,0,0,0-1.7-.36,1.166,1.166,0,0,0-1.319,1.164c0,1.451,3.67.839,3.67,3.646,0,1.835-1.451,2.53-3.142,2.53a7.372,7.372,0,0,1-2.147-.323l.156-1.512a4.032,4.032,0,0,0,1.895.516c.636,0,1.487-.323,1.487-1.079,0-1.595-3.67-.936-3.67-3.706,0-1.871,1.451-2.555,2.927-2.555a6.342,6.342,0,0,1,2,.3Zm2.774-1.535h4.941v1.319H441.88V281.6h2.986v1.319H441.88v2.351h3.286v1.319H440.2Z"
      fill="rgba(255,255,255,0.46)"/>
    <path
      id="jolly"
      d="M458.426,285.131a2.188,2.188,0,0,0,.8.144c1.091,0,1.091-.875,1.091-1.476v-5.576H462v6.38a2.109,2.109,0,0,1-2.291,2.135,4.747,4.747,0,0,1-1.283-.155Zm9.67-7.053c2.626,0,4.1,1.775,4.1,4.306s-1.451,4.354-4.1,4.354c-2.687,0-4.1-1.787-4.1-4.354S465.433,278.078,468.1,278.078Zm0,7.34c1.715,0,2.351-1.522,2.351-3.034,0-1.475-.684-2.986-2.351-2.986s-2.351,1.512-2.351,2.986C465.745,283.9,466.38,285.418,468.1,285.418Zm6.242-7.2h1.679v7.052h3.25v1.319h-4.929Zm6.6,0h1.679v7.052h3.25v1.319h-4.929Zm7.486,5.061-3.059-5.061h1.967l1.979,3.514,2.015-3.514H493.1l-3,5.061v3.311h-1.679Z"
      fill="rgba(255,255,255,0.46)"/>
    <path
      id="juice"
      d="M509.428,285.131a2.192,2.192,0,0,0,.8.144c1.092,0,1.092-.875,1.092-1.476v-5.576H513v6.38a2.108,2.108,0,0,1-2.29,2.135,4.754,4.754,0,0,1-1.284-.155Zm5.916-6.908h1.68v4.833c0,1.427.455,2.362,1.738,2.362s1.739-.936,1.739-2.362v-4.833h1.679v5.349c0,2.243-1.271,3.166-3.418,3.166s-3.418-.923-3.418-3.166Zm9.18,0h1.68v8.371h-1.68Zm10.172,8.251a8.453,8.453,0,0,1-1.906.264c-2.711,0-4.594-1.354-4.594-4.186,0-2.866,1.751-4.474,4.594-4.474a5.54,5.54,0,0,1,1.895.348l-.12,1.416a3.45,3.45,0,0,0-1.811-.444,2.8,2.8,0,0,0-2.807,3.034,2.758,2.758,0,0,0,2.843,2.986,4.672,4.672,0,0,0,1.835-.348Zm1.84-8.251h4.941v1.319h-3.263V281.6H541.2v1.319h-2.986v2.351H541.5v1.319h-4.965Z"
      fill="rgba(255,255,255,0.46)"/>
    <path
      id="drop"
      d="M559.77,278.223h2.291c2.566,0,4.833.863,4.833,4.186s-2.267,4.186-4.833,4.186H559.77Zm1.679,7.052h.936a2.868,2.868,0,0,0,0-5.732h-.936Zm7.441-7.052H570.7c1.8,0,3.946-.061,3.946,2.267a1.915,1.915,0,0,1-1.728,1.942v.024c.456.036.72.491.888.863l1.343,3.274h-1.87l-1.008-2.614c-.24-.624-.456-.864-1.163-.864h-.54v3.479H568.89Zm1.679,3.574h.552c.827,0,1.775-.12,1.775-1.164,0-1.007-.936-1.091-1.775-1.091h-.552Zm10.091-3.719c2.627,0,4.1,1.775,4.1,4.306s-1.451,4.354-4.1,4.354c-2.687,0-4.1-1.787-4.1-4.354S578,278.078,580.659,278.078Zm0,7.34c1.715,0,2.351-1.522,2.351-3.034,0-1.475-.684-2.986-2.351-2.986s-2.351,1.512-2.351,2.986C578.309,283.9,578.944,285.418,580.659,285.418Zm6.1-7.2h2.123c1.823,0,3.49.527,3.49,2.53,0,1.955-1.428,2.662-3.227,2.662h-.707v3.179h-1.68Zm1.68,3.874h.587c.84,0,1.6-.276,1.6-1.248s-.731-1.307-1.6-1.307h-.587Z"
      fill="rgba(255,255,255,0.46)"/>
    <path
      id="tilt"
      d="M616.507,279.542h-2.4v-1.319h6.476v1.319h-2.4v7.052h-1.679Zm5.6-1.319h1.68v8.371h-1.68Zm4.08,0h1.679v7.052h3.251v1.319h-4.93Zm7.019,1.319h-2.4v-1.319h6.477v1.319h-2.4v7.052h-1.68Z"
      fill="rgba(255,255,255,0.46)"/>
    <path
      id="infinite"
      d="M628.974,239.307a4.2,4.2,0,0,1-3.4-2.09c-.864,1.152-1.8,2.072-3.331,2.072a3.409,3.409,0,0,1-3.493-3.656,3.3,3.3,0,0,1,3.4-3.582c1.621,0,2.521.99,3.4,2.2.9-1.242,1.729-2.2,3.385-2.2a3.331,3.331,0,0,1,3.457,3.582A3.387,3.387,0,0,1,628.974,239.307Zm-6.806-5.2a1.472,1.472,0,0,0-1.423,1.566,1.424,1.424,0,0,0,1.44,1.529c.973,0,1.62-.846,2.161-1.529C623.86,235,623.067,234.1,622.168,234.1Zm6.752.035c-.864,0-1.675.955-2.143,1.584a2.952,2.952,0,0,0,2.179,1.514,1.445,1.445,0,0,0,1.44-1.566A1.473,1.473,0,0,0,628.92,234.139Z"
      fill="rgba(255,255,255,0.46)"/>
  </g>
  <g id="elipses">
    <path
      id="elipse3"
      d="M400,432.69c-83.794,0-162.889-19.381-222.713-54.571C113.906,340.836,79,290.024,79,235.044s34.906-105.792,98.287-143.075C237.111,56.779,316.206,37.4,400,37.4S562.889,56.779,622.713,91.969C686.094,129.252,721,180.064,721,235.044s-34.906,105.792-98.287,143.075C562.889,413.309,483.794,432.69,400,432.69Zm0-370.082c-163.215,0-296,77.355-296,172.436S236.785,407.48,400,407.48s296-77.355,296-172.436S563.215,62.608,400,62.608Z"
      fill="rgba(6,6,6,0.22)"/>
    <path
      id="elipse2"
      d="M400,427.4c-83.446,0-162.182-19.122-221.706-53.844C115.553,336.955,81,287.18,81,233.4s34.553-103.557,97.294-140.156C237.818,58.52,316.554,39.4,400,39.4S562.182,58.52,621.706,93.242C684.447,129.841,719,179.616,719,233.4s-34.553,103.557-97.294,140.156C562.182,408.276,483.446,427.4,400,427.4Zm0-367c-164.318,0-298,77.607-298,173s133.682,173,298,173,298-77.607,298-173S564.318,60.4,400,60.4Z"
      fill="rgba(6,6,6,0.22)"/>
    <path
      id="elipse1"
      d="M620.7,94.97C561.476,60.423,483.1,41.4,400,41.4S238.524,60.423,179.3,94.97C117.2,131.2,83,180.357,83,233.4s34.2,102.2,96.3,138.428C238.524,406.373,316.9,425.4,400,425.4s161.476-19.025,220.7-53.572C682.8,335.6,717,286.439,717,233.4S682.8,131.2,620.7,94.97ZM400,408.4c-165.685,0-300-78.35-300-175s134.315-175,300-175,300,78.35,300,175S565.685,408.4,400,408.4Z"
      fill="rgba(6,6,6,1.0)"/>
  </g>
  <g id="lights">
    <path
      id="light4"
      d="M400,38.4C223.821,38.4,81,124.664,81,231.08S223.821,423.761,400,423.761,719,337.495,719,231.08,576.179,38.4,400,38.4Zm0,380.346c-175.621,0-317.991-84.919-317.991-189.671S224.379,39.4,400,39.4,717.991,124.32,717.991,229.072,575.621,418.744,400,418.744Z"
      fill="rgba(255,255,255,0.06)"/>
    <path
      id="light3"
      d="M400,39.4c-176.179,0-319,86.409-319,193s142.821,193,319,193,319-86.409,319-193S576.179,39.4,400,39.4Zm0,380.974c-175.621,0-317.991-85.059-317.991-189.984S224.379,40.4,400,40.4s317.991,85.059,317.991,189.984S575.621,420.372,400,420.372Z"
      fill="rgba(255,255,255,0.06)"/>
    <path
      id="light2"
      d="M400,407.744c166.238,0,301-79.323,301-177.173S566.238,53.4,400,53.4,99,132.721,99,230.571,233.762,407.744,400,407.744Zm0-349.733c165.712,0,300.047,78.084,300.047,174.4S565.712,406.822,400,406.822,99.953,328.738,99.953,232.417,234.288,58.012,400,58.012Z"
      fill="rgba(255,255,255,0.06)"/>
    <path
      id="light1"
      d="M400,408.183c166.238,0,301-79.869,301-178.393S566.238,51.4,400,51.4,99,131.267,99,229.79,233.762,408.183,400,408.183Zm0-352.14c165.712,0,300.047,78.621,300.047,175.605S565.712,407.254,400,407.254,99.953,328.633,99.953,231.649,234.288,56.043,400,56.043Z"
      fill="rgba(255,255,255,0.06)"/>
  </g>
  <path
    id="logotype"
    d="M141.625,490.384c-.853-1.4-3.683-.311-5.108-.983-3.05-1.437-9.019-7.251-11.647-9.847-.14-.139-.04-.331.409-.409,4.987-.786,7.637,3.55,8.378,4.5s.228,1.814,2.043,2.656c2.018.945,1.931-.526-.613-3.269s-2.987-5.782-8.4-6.743c0,0-6-1.326-5.7-2.248a3.991,3.991,0,0,0-.409-2.862c-.392-.712.548-1.56,2.043-.407a75.849,75.849,0,0,0,11.851,6.947c1.75.74,1.494,0,.817-.613-1.438-1.312-4.538-1.82-4.5-2.407.1-1.415,2.9,1.4,5.313,2s4.469.345,3.269-1.022-4.33-3.678-4.689-4.7c-.8-2.9-4.038-4.915-5.936-4.5-1.737.384-2.317-.76-2.861-1.226s-9.421-6.176-16.96-5.726-19.811,4.4-30.241,2.931A13.606,13.606,0,0,0,64.8,468.521c-5.232,3.108-11-4.274-17.573-4.291a.2.2,0,1,0,0,.409c7.192.461,11.547,7.271,15.529,5.517.218-.1.635.187.409.409-.814.934-2.306,2.235-3.065,2.043-2.328-.717-3.316-1.71-4.9-1.839-2.163-.175-5.93.658-9.195-.2s-4.651.192-2.656,1.022c3.644,1.786,7.071.315,11.443,1.226.273.057.278.43,0,.409a7.106,7.106,0,0,0-2.861.2c-2.072.7-5.024,3.005-8.378,3.474s-4.207,2.029-2.043,2.043c5.6.405,8.16-5.328,16.96-3.269,6.81,1.63,9.711,2.527,16.551-2.239,13.814-9.381,21.166,10.491,38.006,1.188.6-.381,1.26-.057,1.226,1.256-.144,3.425,1.507,1.852,4.087,2.043.131.012-.652,1.549,4.087,3.882,2.414,1.189,5.085,3.5,8.173,6.412,3.043.523,2.9,2.4,6.539,2.783a5,5,0,0,0,4.5-.2C141.7,490.724,141.68,490.475,141.625,490.384Zm-36.576-19.82c-.044.566-.161,3.772,1.839,4.7a6.693,6.693,0,0,0-3.882.613s1.418-1.269,1.43-5.108a2.588,2.588,0,0,1-5.108.2c-.641-2.752,3.486-4.768,5.108-9.195.39,4.155,4.715,4.242,5.313,7.56S105.571,473.023,105.05,470.564ZM12.2,480.61h1.139a.649.649,0,0,1,.636.677c0,.37-.138,1.282.336.485s1.333-1.289,2.92-1.289a3.6,3.6,0,0,1,3.029,1.091,6.8,6.8,0,0,1,.827,3.948c0,2.009-.274,3.414-.822,4.158a3.561,3.561,0,0,1-3.045,1.117c-1.58,0-2.414-.389-2.888-1.229-.2-.36-.357-.305-.357.657v4.138c0,.361-.179.637-.531.637H12.2a.637.637,0,0,1-.637-.637V481.247A.637.637,0,0,1,12.2,480.61Zm4.114,1.78a2.069,2.069,0,0,0-1.8.622,4.781,4.781,0,0,0-.421,2.51,5.564,5.564,0,0,0,.453,2.725,2.139,2.139,0,0,0,1.844.643q1.411,0,1.833-.611a5.934,5.934,0,0,0,.421-2.757,4.7,4.7,0,0,0-.427-2.531Q17.786,482.39,16.312,482.39Zm11.379-1.9q2.918,0,3.824.933c.6.622.885,2.094.885,4.1,0,2.233-.295,3.61-.885,4.306s-1.928.969-3.824.969c-2.058,0-3.312-.323-3.919-.969s-.9-2.107-.9-4.306c0-2.114.3-3.463.9-4.1S25.689,480.494,27.69,480.494Zm0,1.907c-1,0-1.686.181-1.959.543a5.1,5.1,0,0,0-.411,2.578,5.977,5.977,0,0,0,.39,2.8c.26.379.941.569,1.981.569,1,0,1.607-.2,1.87-.6a5.784,5.784,0,0,0,.4-2.768,5.23,5.23,0,0,0-.411-2.584C29.271,482.58,28.681,482.4,27.69,482.4Zm8.566-6.1a.637.637,0,0,1,.637.637v7.591c-.013.316.367.327.622,0l2.528-3.645a.637.637,0,0,1,.523-.274h1.205a.637.637,0,0,1,.512,1.016l-2.466,3.333a.637.637,0,0,0,.013.774l3.1,3.916a.637.637,0,0,1-.5,1.032H41.082a.637.637,0,0,1-.514-.26l-3.085-4.206c-.227-.289-.6-.371-.59,0v3.83a.637.637,0,0,1-.637.637H35.117a.637.637,0,0,1-.637-.637V476.938a.637.637,0,0,1,.637-.637Zm14.985,11.788a.766.766,0,0,1,.735-.631h1.746v.39c0,1.967-1.585,2.95-4.535,2.95-2,0-3.2-.34-3.819-1.022s-.927-2.124-.927-4.33c0-1.959.281-3.276.927-3.95s1.944-1.011,3.819-1.011c1.8,0,3.008.328,3.619.985.87.978.954,3.031.939,4.033a.582.582,0,0,1-.583.575H46.906c-.014.225-.021.373-.021.442a3.037,3.037,0,0,0,.458,1.981,2.545,2.545,0,0,0,1.844.5,3.271,3.271,0,0,0,1.712-.289A.983.983,0,0,0,51.241,488.089Zm.079-3.486-.011-.4a2.088,2.088,0,0,0-.416-1.559,2.666,2.666,0,0,0-1.707-.358,2.813,2.813,0,0,0-1.854.432,1.981,1.981,0,0,0-.372,1.138.688.688,0,0,0,.684.748Zm4.516-3.417a.576.576,0,0,1,.576-.576h1.251a.5.5,0,0,1,.492.563c-.056.44-.063.9.263.409a2.542,2.542,0,0,1,2.454-1.13q2.655,0,2.655,3.35v.706H61.251q.042-.411.042-.537,0-1.612-1.254-1.612-1.791,0-1.791,2.391v5.294a.637.637,0,0,1-.637.637H56.474a.637.637,0,0,1-.637-.637Zm15.914,6.241a.64.64,0,0,1,.632-.591h1.791a6.27,6.27,0,0,1-.147,1.875c-.319,1.406-1.735,2.086-4.319,2.086q-2.844,0-3.782-1.027t-.938-4.135q0-3.034.938-4.087t3.645-1.053a5.846,5.846,0,0,1,3.54.764,3.068,3.068,0,0,1,.9,2.192.648.648,0,0,1-.637.71H72.212a.629.629,0,0,1-.615-.5q-.264-1.26-1.985-1.261-1.444,0-1.812.558a6.123,6.123,0,0,0-.369,2.739,5.294,5.294,0,0,0,.406,2.65q.405.543,1.986.542a2.317,2.317,0,0,0,1.6-.374A1.858,1.858,0,0,0,71.75,487.427Zm10.984-3.27a1.566,1.566,0,0,0-1.8-1.756c-1.643,0-2.465.049-2.465,1.756v5.6a.926.926,0,0,1-.926.926h-.561a.926.926,0,0,1-.926-.926V477.227a.926.926,0,0,1,.926-.926h.561a.926.926,0,0,1,.926.926v4.036a.284.284,0,0,0,.5.19,3.406,3.406,0,0,1,2.654-.96q3.529,0,3.529,3.339v5.922a.926.926,0,0,1-.926.926h-.85a.637.637,0,0,1-.637-.637Zm6.711-.629H88.2a.645.645,0,0,1-.637-.716,2.323,2.323,0,0,1,.8-1.706,6.766,6.766,0,0,1,3.466-.611c1.812,0,2.911.113,3.55.611a3.8,3.8,0,0,1,.959,2.992v5.947a.637.637,0,0,1-.637.637H94.52a.562.562,0,0,1-.562-.562v-.828c-.464,1-1.428,1.506-3.107,1.506-2.437,0-3.736-1.035-3.736-3.108,0-2.093,1.243-3.236,3.736-3.236,1.438,0,2.765-.026,3.107.668v-1.055a2.157,2.157,0,0,0-.438-1.564,2.585,2.585,0,0,0-1.686-.385q-1.515,0-1.785.953A.628.628,0,0,1,89.446,483.528Zm2.156,2.644q-2.044,0-2.044,1.412c0,.888.514,1.591,2.191,1.591,1.468,0,2.2-.618,2.2-1.608C93.951,486.555,93.168,486.172,91.6,486.172Zm15.537-3.514a.643.643,0,0,1-.636.722h-1.12a.7.7,0,0,1-.643-.46c-.172-.427-.668-.871-2.022-.814q-1.886,0-1.886,1.222,0,.833.332.99a9.429,9.429,0,0,0,2.249.253,7.182,7.182,0,0,1,3.361.685,2.683,2.683,0,0,1,.78,2.286,2.88,2.88,0,0,1-1.038,2.555,7,7,0,0,1-3.724.711,6.775,6.775,0,0,1-3.529-.643,2.515,2.515,0,0,1-.9-1.816.749.749,0,0,1,.744-.839h1.021a.731.731,0,0,1,.7.564c.143.545.69,1.111,1.99,1.111q2.286,0,2.286-1.327,0-1.274-1.433-1.275a9.612,9.612,0,0,1-4.261-.611,2.722,2.722,0,0,1-1.027-2.539,2.59,2.59,0,0,1,.938-2.339,7.257,7.257,0,0,1,3.6-.611,6.63,6.63,0,0,1,3.387.59A2.148,2.148,0,0,1,107.139,482.658Zm8.827,5.431a.766.766,0,0,1,.735-.631h1.746v.39c0,1.967-1.585,2.95-4.535,2.95-2,0-3.2-.34-3.819-1.022s-.927-2.124-.927-4.33c0-1.959.281-3.276.927-3.95s1.944-1.011,3.819-1.011c1.8,0,3.008.328,3.619.985.87.978.954,3.031.939,4.033a.582.582,0,0,1-.583.575h-6.256c-.014.225-.021.373-.021.442a3.037,3.037,0,0,0,.458,1.981,2.545,2.545,0,0,0,1.844.5,3.271,3.271,0,0,0,1.712-.289A.983.983,0,0,0,115.966,488.089Zm.079-3.486-.011-.4a2.088,2.088,0,0,0-.416-1.559,2.666,2.666,0,0,0-1.707-.358,2.813,2.813,0,0,0-1.854.432,1.981,1.981,0,0,0-.372,1.138.688.688,0,0,0,.684.748Z"
    fill="rgba(255,255,255,0.26)"/>
    <g id="slots">
      <rect id="slot1" x="157" y="205" width="37" height="60.68" rx="12" ry="12" fill="none" stroke="rgba(255,255,255,0.26)" stroke-width="4"/>
      <rect id="slot2" x="207" y="205" width="37" height="60.68" rx="12" ry="12" fill="none" stroke="rgba(255,255,255,0.26)" stroke-width="4"/>
      <rect id="slot3" x="257" y="205" width="37" height="60.68" rx="12" ry="12" fill="none" stroke="rgba(255,255,255,0.26)" stroke-width="4"/>
      <rect id="slot4" x="307" y="205" width="37" height="60.68" rx="12" ry="12" fill="none" stroke="rgba(255,255,255,0.26)" stroke-width="4"/>
      <rect id="slot5" x="357" y="205" width="37" height="60.68" rx="12" ry="12" fill="none" stroke="rgba(255,255,255,0.26)" stroke-width="4"/>
      <rect id="slot6" x="407" y="205" width="37" height="60.68" rx="12" ry="12" fill="none" stroke="rgba(255,255,255,0.26)" stroke-width="4"/>
      <rect id="slot7" x="457" y="205" width="37" height="60.68" rx="12" ry="12" fill="none" stroke="rgba(255,200,0,0.26)" stroke-width="4"/>
      <rect id="slot8" x="507" y="205" width="37" height="60.68" rx="12" ry="12" fill="none" stroke="rgba(255,200,0,0.26)" stroke-width="4"/>
      <rect id="slot9" x="557" y="205" width="37" height="60.68" rx="12" ry="12" fill="none" stroke="rgba(255,200,0,0.26)" stroke-width="4"/>
      <rect id="slot10" x="607" y="205" width="37" height="60.68" rx="12" ry="12" fill="none" stroke="rgba(255,200,0,0.26)" stroke-width="4"/>
   </g>

</svg>
