<svg id="chip" xmlns="http://www.w3.org/2000/svg">
  <path
    id="bg"
    d="M35.074,11.56c-.012,6.51-6.211,11.289-17.1,11.315S.915,17.835.926,11.642C.937,6.03,8.59,1.461,18.019,1.439S35.084,5.947,35.074,11.56Z"
    fill="rgba(0,0,0,1.0)"
    stroke="rgba(0,0,0,1.0)"
    stroke-width="0.5"/>
  <path
    id="coin"
    d="M34.636,10.972c-.013,6.079-6.035,10.541-16.608,10.563S1.453,16.827,1.465,11.044C1.477,5.8,8.911,1.538,18.071,1.518S34.647,5.731,34.636,10.972Z"
    fill="rgba(153,153,153,1.0)"
    stroke="rgba(0,0,0,1.0)"
    stroke-width="0.5"/>
  <path
    id="shadow"
    d="M33.989,10.544c-.012,5.8-5.749,10.063-15.821,10.085S2.379,16.133,2.39,10.612c.011-5,7.093-9.075,15.819-9.094S34,5.54,33.989,10.544Z"
    fill="rgba(206,206,206,1.0)"/>
  <path
    id="color"
    d="M19.575,22.075a.886.886,0,0,0,.9.7,18.132,18.132,0,0,0,6.917-1.644c.593-.282.713-1.9.277-2.266L26.02,17.479c-1.447-1.329,2.1-3.767,4.509-3.453a1.658,1.658,0,0,1,.693.287l1.291.861c.693.484,1.188.533,1.652-.3a7.735,7.735,0,0,0,.694-4.45c-.05-.444-.652-1.235-1.285-1.157L32.71,9.7a1.882,1.882,0,0,1-1.113.19C29.34,9.559,28.21,6.9,29.307,6.419c1.2-.531,1.885-.454,2.027-1.219.281-1.511-5.476-4-6.992-3.026-.833.535-.609.345-1.174,1.28-.806,1.333-6.334.894-6.518-.195s1.246-1.264-.169-1.906c-1.9-.863-8.858.911-8.808,2.182.024.624.775.38,2.047,1.419,1.223,1-2.839,3.406-4.848,3.173a1.653,1.653,0,0,1-.455-.136L3.167,7.458c-.708-.208-1.042.375-1.333.875-.89,1.526-1.117,4.039-.375,4.333s.823-.314,2.07-.541c2.6-.491,4.679,3.121,2.247,4.009l-1.037.4a1.755,1.755,0,0,0-.488,2.259,18.865,18.865,0,0,0,5.289,2.865.6.6,0,0,0,.787-.484,3.02,3.02,0,0,1,.507-1.505,10.04,10.04,0,0,1,1.354-1.1c1.067-.722,6.375.313,6.656.844a4.918,4.918,0,0,1,.531,1.26C19.438,21,19.478,21.622,19.575,22.075Zm3.188-17c.491-.337,5.126,1.774,4.272,2.015l-1.072.564A10.158,10.158,0,0,0,22.05,5.932S22.447,5.468,22.763,5.072Zm-5.9-.4a4.444,4.444,0,0,1,.13.917,15.868,15.868,0,0,0-4.849,1.141,6.241,6.241,0,0,1-.939-.727C10.426,5.589,16.6,3.995,16.86,4.675ZM7.3,8.7a4.252,4.252,0,0,1,1.5.342,3.563,3.563,0,0,0-1.1,2.746,11.085,11.085,0,0,1-1.653.134C5.1,11.788,6.09,8.792,7.3,8.7Zm5.091,8.518c-.667.707-5.65-1.8-4.514-2.318l1.365-.574a12.007,12.007,0,0,0,4.248,1.932Zm6.588.671-.429-1.291A15.87,15.87,0,0,0,23.4,15.453l.939.727C25.42,17.078,19.19,18.737,18.983,17.884Zm-.506-1.837c-5.137.415-9.618-1.474-10.008-4.219s3.458-5.307,8.595-5.722,9.618,1.474,10.008,4.219S23.614,15.633,18.477,16.048Zm9.993-2.823-1.5-.342a2.918,2.918,0,0,0,.715-2.591l1.653-.134C30.682,10.258,29.64,13.464,28.47,13.225Z"
    fill="rgba(25,25,25,1.0)"
    stroke="rgba(0,0,0,1.0)"
    stroke-width="0.5"/>
</svg>
