<?xml version="1.0" encoding="utf-8"?>
<svg version="1.1" viewBox="0 0 120 120" id="deck" xmlns="http://www.w3.org/2000/svg" xmlns:xlink="http://www.w3.org/1999/xlink" x="0px" y="0px">
  <path
    id="cardBG"
    fill="rgba(255,250,220,1.0)"
    stroke="rgba(100,50,50,0.6)"
    stroke-width="2"
    d="M39,83H13C6.4,83,1,77.6,1,71V13C1,6.4,6.4,1,13,1h26c6.6,0,12,5.4,12,12v58C51,77.6,45.6,83,39,83z"/>
  <path
    id="suitHearts"
    fill="rgba(180,0,0,1.0)"
    d="M40.99,54.946c0-6.916-4.029-8.64-7.884-8.64s-6.247,3.31-6.582,5.132 c-0.186,1.116-0.301,1.339-0.524,1.339c-0.223,0-0.338-0.223-0.524-1.339c-0.335-1.822-2.727-5.132-6.582-5.132 s-7.884,1.724-7.884,8.64c-0.361,9.339,8.742,14.328,13.994,22.269c0.476,0.72,1.514,0.72,1.99,0 C32.248,69.274,41.351,64.285,40.99,54.946z"/>
  <path
    id="suitDiamonds"
    fill="rgba(180,0,0,1.0)"
    d="M38.148,61.335L26.613,76.745c-0.307,0.41-0.921,0.41-1.227,0L13.852,61.335 c-0.206-0.275-0.203-0.654,0.006-0.926l11.534-14.994c0.307-0.399,0.908-0.399,1.215,0l11.534,14.994 C38.351,60.681,38.354,61.059,38.148,61.335z"/>
  <path
    id="suitClubs"
    fill="rgba(12,12,12,1.0)"
    d="M30.266,59.176c-0.363,0.363-0.508,0.436-0.726,0.436c-0.182,0-0.363-0.304-0.363-0.486 c0-0.182,0.145-0.4,0.472-0.654c0.4-0.327,0.835-0.762,1.235-1.271c1.416-1.634,2.07-3.34,2.07-5.229 c0-3.849-2.965-7.008-6.954-7.008s-6.954,3.159-6.954,7.008c0,1.888,0.654,3.595,2.07,5.229c0.4,0.509,0.835,0.944,1.235,1.271 c0.327,0.254,0.472,0.472,0.472,0.654c0,0.181-0.181,0.486-0.363,0.486c-0.218,0-0.363-0.073-0.726-0.436 c-2.987-2.987-11.475-3.231-11.475,4.779c0,8.011,10.87,10.492,13.658,0.767c0.072-0.327,0.867-0.694,0.867,1.266 c0,1.877-0.374,5.941-2.506,9.323c-0.347,0.551,0.082,1.253,0.731,1.202c0.955-0.075,1.898-0.104,2.991-0.104 c1.093,0,2.037,0.029,2.991,0.104c0.649,0.051,1.078-0.651,0.731-1.202c-2.132-3.382-2.506-7.447-2.506-9.323 c0-2.137,0.768-1.452,0.84-1.126c2.788,9.725,13.684,7.103,13.684-0.908C41.741,55.945,33.254,56.189,30.266,59.176z"/>
  <path
    id="suitSpades"
    fill="rgba(12,12,12,1.0)"
    d="M26.816,44.674c-0.374-0.597-1.258-0.597-1.631,0c-1.129,1.803-3.279,5.52-5.489,8.243 c-3.488,4.298-7.123,7.916-7.123,11.291c0,2.996,1.657,6.98,5.892,6.98s5.792-2.403,5.792-5.173c0-1.018,0.931-1.429,0.931,0 c0,3.015-1.334,6.653-2.623,8.514c-0.392,0.566,0.069,1.327,0.752,1.236c1.208-0.161,1.946-0.216,2.684-0.216 c0.738,0,1.476,0.055,2.684,0.216c0.683,0.091,1.145-0.67,0.752-1.236c-1.289-1.861-2.623-5.499-2.623-8.514 c0-1.429,0.947-1.223,0.947,0c0,2.77,1.541,5.173,5.776,5.173s5.892-3.983,5.892-6.98c0-3.407-3.704-6.962-7.221-11.291 C30.031,50.241,27.928,46.45,26.816,44.674z"/>
  <path
    id="blackA"
    fill="rgba(12,12,12,1.0)"
    d="M40.653,36.841L29.826,9.258c-0.235-0.6-0.814-0.994-1.458-0.994h-4.814c-0.646,0-1.225,0.396-1.46,0.998 L11.345,36.844c-0.4,1.027,0.357,2.136,1.46,2.136h3.009c0.65,0,1.232-0.401,1.464-1.009l1.915-5.024 c0.232-0.607,0.814-1.009,1.464-1.009h10.288c0.653,0,1.238,0.405,1.467,1.017l1.878,5.008c0.229,0.612,0.814,1.017,1.467,1.017 h3.437C40.299,38.98,41.057,37.868,40.653,36.841z M26.41,16.098l3.126,8.915c0.357,1.019-0.399,2.085-1.479,2.085H23.5 c-1.08,0-1.836-1.066-1.479-2.085l3.202-8.92C25.424,15.536,26.214,15.538,26.41,16.098z"/>
  <path
    id="blackJ"
    fill="rgba(12,12,12,1.0)"
    d="M18.443,34.924c0-0.666,0.614-1.143,1.267-1.011c0.494,0.101,1.04,0.16,1.681,0.16 c4.004,0,4.004-3.212,4.004-5.413V9.236c0-0.573,0.465-1.038,1.038-1.038h4.085c0.573,0,1.038,0.465,1.038,1.038v22.373 c0,3.257-2.112,7.833-8.405,7.833c-1.391,0-2.538-0.091-3.872-0.375c-0.484-0.103-0.837-0.525-0.837-1.02V34.924z"/>
  <path
    id="blackQ"
    fill="rgba(12,12,12,1.0)"
    d="M31.854,43.757l-3.236-3.236c-0.69-0.69-1.626-1.078-2.602-1.078H26c-9.857,0-15.05-6.557-15.05-15.974 S16.231,7.67,26,7.67c9.637,0,15.05,6.513,15.05,15.798c0,5.868-2.121,10.727-6.147,13.434c-0.782,0.526-0.847,1.659-0.179,2.323 l3.893,3.869c0.876,0.87,0.555,1.63-0.076,1.63h-4.353C33.313,44.724,32.473,44.376,31.854,43.757z M26,34.602 c6.293,0,8.625-5.589,8.625-11.134c0-5.413-2.508-10.958-8.625-10.958c-6.117,0-8.625,5.545-8.625,10.958 C17.375,29.013,19.707,34.602,26,34.602z"/>
  <path
    id="blackK"
    fill="rgba(12,12,12,1.0)"
    d="M37.624,38.915h-3.649c-1.028,0-1.998-0.476-2.627-1.288l-8.613-11.022c-0.499-0.638-1.523-0.286-1.523,0.524 v10.462c0,0.731-0.592,1.323-1.323,1.323h-3.515c-0.731,0-1.323-0.592-1.323-1.323V9.521c0-0.731,0.592-1.323,1.323-1.323h3.515 c0.731,0,1.323,0.592,1.323,1.323v9.799c0,0.707,0.883,1.028,1.337,0.487l8.83-10.512c0.584-0.696,1.446-1.097,2.355-1.097h3.226 c1.136,0,1.744,1.337,0.997,2.193l-9.986,11.447c-0.423,0.485-0.436,1.203-0.031,1.703l10.71,13.218 C39.352,37.624,38.737,38.915,37.624,38.915z"/>
  <path
    id="black2"
    fill="rgba(12,12,12,1.0)"
    d="M15.791,37.764l0-2.321c0-1.086,0.451-2.119,1.25-2.854c3.857-3.554,12.04-10.96,12.04-15.949 c0-2.816-2.508-4.137-5.017-4.137c-1.986,0-3.894,0.669-5.588,1.575c-0.717,0.383-1.591-0.091-1.667-0.901l-0.239-2.518 c-0.045-0.478,0.208-0.944,0.645-1.144c2.601-1.19,5.532-1.853,8.389-1.853c5.853,0,9.637,2.949,9.637,8.978 c0,5.91-5.399,11.385-10.147,16.031c-0.522,0.511-0.16,1.395,0.571,1.395c2.658,0,7.27,0,9.403,0c0.631,0,1.142,0.512,1.142,1.143 v2.555c0,0.631-0.512,1.143-1.143,1.143H16.933C16.302,38.907,15.791,38.395,15.791,37.764z"/>
  <path
    id="black3"
    fill="rgba(12,12,12,1.0)"
    d="M31.453,22.26c2.446-1.241,4.286-3.201,4.286-6.72c0-6.557-6.337-7.877-10.122-7.877 c-2.829,0-5.483,0.456-7.774,1.243c-0.483,0.166-0.783,0.648-0.746,1.158l0.176,2.47c0.055,0.763,0.827,1.25,1.542,0.979 c1.745-0.659,3.586-1.01,5.481-1.01c2.772,0,5.281,0.968,5.281,4.049c0,2.684-2.685,4.048-6.821,4.048h-1.674 c-0.631,0-1.143,0.512-1.143,1.143v2.555c0,0.631,0.512,1.143,1.143,1.143h1.849c3.917,0,6.777,1.188,6.777,4.796 c0,3.125-3.917,4.357-6.469,4.357c-1.899,0-3.717-0.352-5.432-0.908c-0.708-0.229-1.44,0.262-1.49,1.005 c-0.06,0.899-0.135,2.013-0.188,2.789c-0.038,0.564,0.34,1.062,0.89,1.19c2.148,0.5,4.772,0.764,7.099,0.764 c5.105,0,11.75-1.848,11.75-9.153c0-3.256-1.468-5.979-4.432-6.978C30.998,23.155,30.993,22.493,31.453,22.26z"/>
  <path
    id="black4"
    fill="rgba(12,12,12,1.0)"
    d="M15.11,26.475L25.624,8.75c0.206-0.347,0.579-0.56,0.983-0.56h5.863c0.631,0,1.143,0.512,1.143,1.143v17.473 c0,0.631,0.512,1.143,1.143,1.143h1.632c0.631,0,1.143,0.512,1.143,1.143v2.291c0,0.631-0.512,1.143-1.143,1.143h-1.632 c-0.631,0-1.143,0.512-1.143,1.143v4.095c0,0.631-0.512,1.143-1.143,1.143h-3.611c-0.631,0-1.143-0.512-1.143-1.143v-4.095 c0-0.631-0.512-1.143-1.143-1.143H15.613c-0.631,0-1.143-0.512-1.143-1.143v-2.576C14.47,27.987,14.691,27.181,15.11,26.475z M26.574,27.949c0.631,0,1.143-0.512,1.143-1.143V16.07c0-0.613-0.459-0.717-0.836-0.083l-5.89,10.253 c-0.435,0.762,0.115,1.709,0.992,1.709H26.574z"/>
  <path
    id="black5"
    fill="rgba(12,12,12,1.0)"
    d="M33.669,12.767h-9.575c-0.622,0-1.13,0.498-1.142,1.12l-0.083,4.1c-0.014,0.682,0.574,1.212,1.251,1.127 c0.455-0.057,0.966-0.098,1.539-0.098c4.312,0,9.901,2.024,9.901,9.99c0,5.765-4.048,10.429-11.97,10.429 c-2.025,0-4.337-0.288-6.23-0.672c-0.546-0.111-0.934-0.593-0.921-1.15l0.07-2.916c0.019-0.789,0.811-1.313,1.551-1.039 c1.303,0.483,2.902,0.936,4.781,0.936c3.212,0,6.557-1.497,6.557-5.413c0-3.96-3.521-5.325-7.041-5.325 c-1.399,0-2.751,0.144-4.09,0.451c-0.718,0.165-1.397-0.389-1.383-1.126l0.242-12.97c0.029-1.528,0.537-2.021,1.159-2.021h15.382 c0.631,0,1.143,0.512,1.143,1.143v2.291C34.812,12.256,34.301,12.767,33.669,12.767z"/>
  <path
    id="black6"
    fill="rgba(12,12,12,1.0)"
    d="M34.211,12.331c-0.111,0.696-0.823,1.139-1.487,0.904c-1.246-0.44-2.566-0.733-4.105-0.733 c-5.017,0-6.909,4.376-7.258,8.71c-0.003,0.451,0.334,0.486,0.597,0.156c1.372-1.609,3.108-2.354,5.386-2.354 c5.809,0,8.977,3.697,8.977,9.374c0,6.645-3.256,11.045-10.209,11.045c-8.537,0-10.43-7.085-10.43-14.302 c0-8.317,2.685-17.471,12.63-17.471c1.915,0,3.734,0.256,5.538,0.796c0.54,0.161,0.866,0.714,0.777,1.271L34.211,12.331z M21.842,29.402c0,2.904,1.232,5.457,4.269,5.457c2.86,0,4.049-2.772,4.049-5.501c0-2.993-1.232-5.765-4.181-5.765 C22.986,23.593,21.842,26.321,21.842,29.402z"/>
  <path
    id="black7"
    fill="rgba(12,12,12,1.0)"
    d="M17.241,8.191h17.518c0.631,0,1.143,0.512,1.143,1.143v2.537c0,0.94-0.19,1.871-0.559,2.736L25.284,38.212 c-0.18,0.421-0.593,0.695-1.051,0.695h-4.181c-0.825,0-1.378-0.848-1.046-1.603l9.985-22.669c0.333-0.755-0.22-1.603-1.046-1.603 H17.241c-0.631,0-1.143-0.512-1.143-1.143V9.333C16.098,8.702,16.61,8.191,17.241,8.191z"/>
  <path
    id="black8"
    fill="rgba(12,12,12,1.0)"
    d="M20.431,22.648c-2.792-1.412-4.596-3.856-4.596-6.888c0-5.5,4.181-8.097,9.77-8.097 c5.413,0,10.297,2.245,10.297,7.393c0,2.579-1.485,5.538-4.418,7.037c-0.432,0.258-0.538,0.44-0.014,0.688 c3.582,1.865,5.225,4.402,5.225,7.722c0,6.205-4.489,8.933-10.562,8.933c-5.985,0-10.826-2.596-10.826-8.845 c0-3.264,1.752-5.573,5.103-7.344C20.894,23.032,20.863,22.88,20.431,22.648z M26.132,34.859c2.464,0,4.401-1.541,4.401-4.093 c0-2.559-1.844-3.993-3.952-4.881c-0.793-0.334-1.703-0.228-2.432,0.228c-1.575,0.986-2.682,2.304-2.682,4.389 C21.468,33.054,23.668,34.859,26.132,34.859z M25.292,20.04c0.92,0.408,1.997,0.284,2.774-0.355c1.095-0.9,1.939-2.248,1.939-3.574 c0-2.288-1.452-3.873-3.785-3.873c-2.244,0-4.488,1.232-4.488,3.697C21.732,18.061,23.5,19.246,25.292,20.04z"/>
  <path
    id="black9"
    fill="rgba(12,12,12,1.0)"
    d="M17.789,34.766c0.111-0.696,0.823-1.139,1.487-0.904c1.246,0.44,2.566,0.733,4.105,0.733 c5.017,0,6.909-4.376,7.258-8.71c0.003-0.451-0.334-0.486-0.597-0.156c-1.372,1.609-3.108,2.354-5.386,2.354 c-5.809,0-8.977-3.697-8.977-9.374c0-6.645,3.256-11.045,10.209-11.045c8.537,0,10.43,7.085,10.43,14.302 c0,8.317-2.685,17.471-12.63,17.471c-1.915,0-3.734-0.256-5.538-0.796c-0.54-0.161-0.866-0.714-0.777-1.271L17.789,34.766z M30.158,17.695c0-2.904-1.232-5.457-4.269-5.457c-2.86,0-4.049,2.772-4.049,5.501c0,2.993,1.232,5.765,4.181,5.765 C29.014,23.504,30.158,20.776,30.158,17.695z"/>
  <path
    id="black10"
    fill="rgba(12,12,12,1.0)"
    d="M15.2,8.191h3.912c0.631,0,1.143,0.512,1.143,1.143v28.431c0,0.631-0.512,1.143-1.143,1.143h-3.876 	c-0.631,0-1.143-0.512-1.143-1.143V17.59c0-0.963-1.117-1.494-1.864-0.886l-2.418,1.967c-0.499,0.406-1.235,0.32-1.627-0.19 	l-1.683-2.188c-0.379-0.493-0.295-1.198,0.19-1.587l7.792-6.264C14.687,8.28,14.939,8.191,15.2,8.191z M24.348,23.637c0-7.701,2.333-15.975,10.65-15.975c8.977,0,10.737,8.845,10.737,15.975 	c0,7.129-1.848,15.798-10.737,15.798C25.536,39.435,24.348,30.062,24.348,23.637z M39.574,23.637c0-3.961,0-11.398-4.577-11.398 	c-4.489,0-4.489,7.437-4.489,11.398c0,3.873-0.044,11.222,4.489,11.222C39.618,34.859,39.574,27.509,39.574,23.637z"/>
  <path
    id="blackT"
    fill="rgba(12,12,12,1.0)"
    d="M28.305,15.156v21.117c0,1.502-1.217,2.719-2.719,2.719h-0.633c-1.502,0-2.719-1.217-2.719-2.719V15.156 c0-1.502-1.217-2.719-2.719-2.719h-3.797C14.217,12.438,13,11.22,13,9.719v0C13,8.217,14.217,7,15.719,7h19.43 c1.502,0,2.719,1.217,2.719,2.719v0c0,1.502-1.217,2.719-2.719,2.719h-4.125C29.522,12.438,28.305,13.655,28.305,15.156z"/>
  <path
    id="redA"
    fill="rgba(180,0,0,1.0)"
    d="M40.653,36.841L29.826,9.258c-0.235-0.6-0.814-0.994-1.458-0.994h-4.814c-0.646,0-1.225,0.396-1.46,0.998 L11.345,36.844c-0.4,1.027,0.357,2.136,1.46,2.136h3.009c0.65,0,1.232-0.401,1.464-1.009l1.915-5.024 c0.232-0.607,0.814-1.009,1.464-1.009h10.288c0.653,0,1.238,0.405,1.467,1.017l1.878,5.008c0.229,0.612,0.814,1.017,1.467,1.017 h3.437C40.299,38.98,41.057,37.868,40.653,36.841z M26.41,16.098l3.126,8.915c0.357,1.019-0.399,2.085-1.479,2.085H23.5 c-1.08,0-1.836-1.066-1.479-2.085l3.202-8.92C25.424,15.536,26.214,15.538,26.41,16.098z"/>
  <path
    id="redJ"
    fill="rgba(180,0,0,1.0)"
    d="M18.443,34.924c0-0.666,0.614-1.143,1.267-1.011c0.494,0.101,1.04,0.16,1.681,0.16 c4.004,0,4.004-3.212,4.004-5.413V9.236c0-0.573,0.465-1.038,1.038-1.038h4.085c0.573,0,1.038,0.465,1.038,1.038v22.373 c0,3.257-2.112,7.833-8.405,7.833c-1.391,0-2.538-0.091-3.872-0.375c-0.484-0.103-0.837-0.525-0.837-1.02V34.924z"/>
  <path
    id="redQ"
    fill="rgba(180,0,0,1.0)"
    d="M31.854,43.757l-3.236-3.236c-0.69-0.69-1.626-1.078-2.602-1.078H26c-9.857,0-15.05-6.557-15.05-15.974 S16.231,7.67,26,7.67c9.637,0,15.05,6.513,15.05,15.798c0,5.868-2.121,10.727-6.147,13.434c-0.782,0.526-0.847,1.659-0.179,2.323 l3.893,3.869c0.876,0.87,0.555,1.63-0.076,1.63h-4.353C33.313,44.724,32.473,44.376,31.854,43.757z M26,34.602 c6.293,0,8.625-5.589,8.625-11.134c0-5.413-2.508-10.958-8.625-10.958c-6.117,0-8.625,5.545-8.625,10.958 C17.375,29.013,19.707,34.602,26,34.602z"/>
  <path
    id="redK"
    fill="rgba(180,0,0,1.0)"
    d="M37.624,38.915h-3.649c-1.028,0-1.998-0.476-2.627-1.288l-8.613-11.022c-0.499-0.638-1.523-0.286-1.523,0.524 v10.462c0,0.731-0.592,1.323-1.323,1.323h-3.515c-0.731,0-1.323-0.592-1.323-1.323V9.521c0-0.731,0.592-1.323,1.323-1.323h3.515 c0.731,0,1.323,0.592,1.323,1.323v9.799c0,0.707,0.883,1.028,1.337,0.487l8.83-10.512c0.584-0.696,1.446-1.097,2.355-1.097h3.226 c1.136,0,1.744,1.337,0.997,2.193l-9.986,11.447c-0.423,0.485-0.436,1.203-0.031,1.703l10.71,13.218 C39.352,37.624,38.737,38.915,37.624,38.915z"/>
  <path
    id="red2"
    fill="rgba(180,0,0,1.0)"
    d="M15.791,37.764l0-2.321c0-1.086,0.451-2.119,1.25-2.854c3.857-3.554,12.04-10.96,12.04-15.949 c0-2.816-2.508-4.137-5.017-4.137c-1.986,0-3.894,0.669-5.588,1.575c-0.717,0.383-1.591-0.091-1.667-0.901l-0.239-2.518 c-0.045-0.478,0.208-0.944,0.645-1.144c2.601-1.19,5.532-1.853,8.389-1.853c5.853,0,9.637,2.949,9.637,8.978 c0,5.91-5.399,11.385-10.147,16.031c-0.522,0.511-0.16,1.395,0.571,1.395c2.658,0,7.27,0,9.403,0c0.631,0,1.142,0.512,1.142,1.143 v2.555c0,0.631-0.512,1.143-1.143,1.143H16.933C16.302,38.907,15.791,38.395,15.791,37.764z"/>
  <path
    id="red3"
    fill="rgba(180,0,0,1.0)"
    d="M31.453,22.26c2.446-1.241,4.286-3.201,4.286-6.72c0-6.557-6.337-7.877-10.122-7.877 c-2.829,0-5.483,0.456-7.774,1.243c-0.483,0.166-0.783,0.648-0.746,1.158l0.176,2.47c0.055,0.763,0.827,1.25,1.542,0.979 c1.745-0.659,3.586-1.01,5.481-1.01c2.772,0,5.281,0.968,5.281,4.049c0,2.684-2.685,4.048-6.821,4.048h-1.674 c-0.631,0-1.143,0.512-1.143,1.143v2.555c0,0.631,0.512,1.143,1.143,1.143h1.849c3.917,0,6.777,1.188,6.777,4.796 c0,3.125-3.917,4.357-6.469,4.357c-1.899,0-3.717-0.352-5.432-0.908c-0.708-0.229-1.44,0.262-1.49,1.005 c-0.06,0.899-0.135,2.013-0.188,2.789c-0.038,0.564,0.34,1.062,0.89,1.19c2.148,0.5,4.772,0.764,7.099,0.764 c5.105,0,11.75-1.848,11.75-9.153c0-3.256-1.468-5.979-4.432-6.978C30.998,23.155,30.993,22.493,31.453,22.26z"/>
  <path
    id="red4"
    fill="rgba(180,0,0,1.0)"
    d="M15.11,26.475L25.624,8.75c0.206-0.347,0.579-0.56,0.983-0.56h5.863c0.631,0,1.143,0.512,1.143,1.143v17.473 c0,0.631,0.512,1.143,1.143,1.143h1.632c0.631,0,1.143,0.512,1.143,1.143v2.291c0,0.631-0.512,1.143-1.143,1.143h-1.632 c-0.631,0-1.143,0.512-1.143,1.143v4.095c0,0.631-0.512,1.143-1.143,1.143h-3.611c-0.631,0-1.143-0.512-1.143-1.143v-4.095 c0-0.631-0.512-1.143-1.143-1.143H15.613c-0.631,0-1.143-0.512-1.143-1.143v-2.576C14.47,27.987,14.691,27.181,15.11,26.475z M26.574,27.949c0.631,0,1.143-0.512,1.143-1.143V16.07c0-0.613-0.459-0.717-0.836-0.083l-5.89,10.253 c-0.435,0.762,0.115,1.709,0.992,1.709H26.574z"/>
  <path
    id="red5"
    fill="rgba(180,0,0,1.0)"
    d="M33.669,12.767h-9.575c-0.622,0-1.13,0.498-1.142,1.12l-0.083,4.1c-0.014,0.682,0.574,1.212,1.251,1.127 c0.455-0.057,0.966-0.098,1.539-0.098c4.312,0,9.901,2.024,9.901,9.99c0,5.765-4.048,10.429-11.97,10.429 c-2.025,0-4.337-0.288-6.23-0.672c-0.546-0.111-0.934-0.593-0.921-1.15l0.07-2.916c0.019-0.789,0.811-1.313,1.551-1.039 c1.303,0.483,2.902,0.936,4.781,0.936c3.212,0,6.557-1.497,6.557-5.413c0-3.96-3.521-5.325-7.041-5.325 c-1.399,0-2.751,0.144-4.09,0.451c-0.718,0.165-1.397-0.389-1.383-1.126l0.242-12.97c0.029-1.528,0.537-2.021,1.159-2.021h15.382 c0.631,0,1.143,0.512,1.143,1.143v2.291C34.812,12.256,34.301,12.767,33.669,12.767z"/>
  <path
    id="red6"
    fill="rgba(180,0,0,1.0)"
    d="M34.211,12.331c-0.111,0.696-0.823,1.139-1.487,0.904c-1.246-0.44-2.566-0.733-4.105-0.733 c-5.017,0-6.909,4.376-7.258,8.71c-0.003,0.451,0.334,0.486,0.597,0.156c1.372-1.609,3.108-2.354,5.386-2.354 c5.809,0,8.977,3.697,8.977,9.374c0,6.645-3.256,11.045-10.209,11.045c-8.537,0-10.43-7.085-10.43-14.302 c0-8.317,2.685-17.471,12.63-17.471c1.915,0,3.734,0.256,5.538,0.796c0.54,0.161,0.866,0.714,0.777,1.271L34.211,12.331z M21.842,29.402c0,2.904,1.232,5.457,4.269,5.457c2.86,0,4.049-2.772,4.049-5.501c0-2.993-1.232-5.765-4.181-5.765 C22.986,23.593,21.842,26.321,21.842,29.402z"/>
  <path
    id="red7"
    fill="rgba(180,0,0,1.0)"
    d="M17.241,8.191h17.518c0.631,0,1.143,0.512,1.143,1.143v2.537c0,0.94-0.19,1.871-0.559,2.736L25.284,38.212 c-0.18,0.421-0.593,0.695-1.051,0.695h-4.181c-0.825,0-1.378-0.848-1.046-1.603l9.985-22.669c0.333-0.755-0.22-1.603-1.046-1.603 H17.241c-0.631,0-1.143-0.512-1.143-1.143V9.333C16.098,8.702,16.61,8.191,17.241,8.191z"/>
  <path
    id="red8"
    fill="rgba(180,0,0,1.0)"
    d="M20.431,22.648c-2.792-1.412-4.596-3.856-4.596-6.888c0-5.5,4.181-8.097,9.77-8.097 c5.413,0,10.297,2.245,10.297,7.393c0,2.579-1.485,5.538-4.418,7.037c-0.432,0.258-0.538,0.44-0.014,0.688 c3.582,1.865,5.225,4.402,5.225,7.722c0,6.205-4.489,8.933-10.562,8.933c-5.985,0-10.826-2.596-10.826-8.845 c0-3.264,1.752-5.573,5.103-7.344C20.894,23.032,20.863,22.88,20.431,22.648z M26.132,34.859c2.464,0,4.401-1.541,4.401-4.093 c0-2.559-1.844-3.993-3.952-4.881c-0.793-0.334-1.703-0.228-2.432,0.228c-1.575,0.986-2.682,2.304-2.682,4.389 C21.468,33.054,23.668,34.859,26.132,34.859z M25.292,20.04c0.92,0.408,1.997,0.284,2.774-0.355c1.095-0.9,1.939-2.248,1.939-3.574 c0-2.288-1.452-3.873-3.785-3.873c-2.244,0-4.488,1.232-4.488,3.697C21.732,18.061,23.5,19.246,25.292,20.04z"/>
  <path
    id="red9"
    fill="rgba(180,0,0,1.0)"
    d="M17.789,34.766c0.111-0.696,0.823-1.139,1.487-0.904c1.246,0.44,2.566,0.733,4.105,0.733 c5.017,0,6.909-4.376,7.258-8.71c0.003-0.451-0.334-0.486-0.597-0.156c-1.372,1.609-3.108,2.354-5.386,2.354 c-5.809,0-8.977-3.697-8.977-9.374c0-6.645,3.256-11.045,10.209-11.045c8.537,0,10.43,7.085,10.43,14.302 c0,8.317-2.685,17.471-12.63,17.471c-1.915,0-3.734-0.256-5.538-0.796c-0.54-0.161-0.866-0.714-0.777-1.271L17.789,34.766z M30.158,17.695c0-2.904-1.232-5.457-4.269-5.457c-2.86,0-4.049,2.772-4.049,5.501c0,2.993,1.232,5.765,4.181,5.765 C29.014,23.504,30.158,20.776,30.158,17.695z"/>
  <path
    id="red10"
    fill="rgba(180,0,0,1.0)"
    d="M15.2,8.191h3.912c0.631,0,1.143,0.512,1.143,1.143v28.431c0,0.631-0.512,1.143-1.143,1.143h-3.876 	c-0.631,0-1.143-0.512-1.143-1.143V17.59c0-0.963-1.117-1.494-1.864-0.886l-2.418,1.967c-0.499,0.406-1.235,0.32-1.627-0.19 l-1.683-2.188c-0.379-0.493-0.295-1.198,0.19-1.587l7.792-6.264C14.687,8.28,14.939,8.191,15.2,8.191z M24.348,23.637c0-7.701,2.333-15.975,10.65-15.975c8.977,0,10.737,8.845,10.737,15.975 c0,7.129-1.848,15.798-10.737,15.798C25.536,39.435,24.348,30.062,24.348,23.637z M39.574,23.637c0-3.961,0-11.398-4.577-11.398 	c-4.489,0-4.489,7.437-4.489,11.398c0,3.873-0.044,11.222,4.489,11.222C39.618,34.859,39.574,27.509,39.574,23.637z"/>
  <path
    id="redT"
    fill="rgba(180,0,0,1.0)"
    d="M28.305,15.156v21.117c0,1.502-1.217,2.719-2.719,2.719h-0.633c-1.502,0-2.719-1.217-2.719-2.719V15.156 c0-1.502-1.217-2.719-2.719-2.719h-3.797C14.217,12.438,13,11.22,13,9.719v0C13,8.217,14.217,7,15.719,7h19.43 c1.502,0,2.719,1.217,2.719,2.719v0c0,1.502-1.217,2.719-2.719,2.719h-4.125C29.522,12.438,28.305,13.655,28.305,15.156z"/>
</svg>
