<svg id="players" viewBox="0 0 420 420"  xmlns="http://www.w3.org/2000/svg">
  <circle id="bg" cx="40" cy="43" r="38" fill="rgba(17,17,17,0.9)"/>
  <circle id="chair" cx="40" cy="43" r="38" fill="none" stroke="rgba(255,255,255,0.26)" stroke-width="4"/>
  <g id="icon">
    <circle id="bg" cx="40" cy="43" r="38" fill="rgba(26,26,26,0.04)"/>
    <path
      id="spades"
      d="M42.641,52.3c-0.216,2.793-1.128,18.575,8.749,23.157c-8.971-2.1-19.126,2.035-19.126,2.035 s7.47-5.749,7.53-24.713c-3.282,15.2-22.192,14.444-25.357,0.851S31.689,30.374,39.7,8.511 c1.928,20.523,22.988,20.745,25.937,37.131C68.586,62.028,45.216,64.438,42.641,52.3z"
      fill="rgba(255,255,255,0.04)"/>
  </g>
  <g id="vipRoom">
    <path
      id="eloRight"
      d="M71.513,48.235c-0.657,0.759-2.128,1.139-4.413,1.139c-0.631,0.003-1.263-0.026-1.891-0.087 c0.373-0.164,0.706-0.405,0.979-0.708c0.297-0.37,0.517-0.796,0.646-1.252h0.082c1.549,0,2.463-0.192,2.743-0.576 s0.42-1.63,0.42-3.739c0-2.102-0.148-3.361-0.443-3.776s-1.184-0.623-2.665-0.622c-1.549,0-2.482,0.184-2.8,0.553 c-0.318,0.369-0.477,1.457-0.476,3.264c0,1.031,0.024,1.88,0.073,2.548c0.017,0.501-0.072,1-0.261,1.464 c-0.01,0.013-0.248,0.307-1.873,0.354c-0.28-1.391-0.402-2.809-0.364-4.228c0-2.52,0.335-4.15,1.005-4.891 c0.67-0.741,2.148-1.111,4.435-1.111c2.539,0,4.139,0.375,4.8,1.125s0.991,2.566,0.99,5.449 C72.5,45.78,72.171,47.478,71.513,48.235z"
      fill="rgba(255,255,255,0.4)"/>
    <path
      id="eloLeft"
      d="M56.541,37.706c0.657-0.759,2.128-1.139,4.413-1.139c0.631-0.003,1.263,0.026,1.891,0.087 c-0.373,0.164-0.706,0.405-0.979,0.708c-0.297,0.37-0.517,0.796-0.646,1.252h-0.082c-1.549,0-2.463,0.192-2.743,0.576 s-0.42,1.63-0.42,3.739c0,2.102,0.148,3.361,0.443,3.776s1.184,0.623,2.665,0.622c1.549,0,2.482-0.184,2.8-0.553 c0.318-0.369,0.477-1.457,0.476-3.264c0-1.031-0.024-1.88-0.073-2.548c-0.017-0.501,0.072-1,0.261-1.464 c0.01-0.013,0.248-0.307,1.873-0.354c0.28,1.391,0.402,2.809,0.364,4.228c0,2.52-0.335,4.15-1.005,4.891 c-0.67,0.741-2.148,1.111-4.435,1.111c-2.539,0-4.139-0.375-4.8-1.125s-0.991-2.566-0.99-5.449 C55.554,40.161,55.883,38.463,56.541,37.706z"
      fill="rgba(255,255,255,0.4)"/>
  </g>
  <circle id="playerStatus" cx="40" cy="43" r="36" fill="rgba(0,0,0,0.03)" stroke="rgba(255,200,0,0.3)" stroke-width="3"/>
  <circle id="button" cx="40" cy="43" r="36" fill="rgba(0,0,0,0.26)" stroke="rgba(255,255,255,0.26)" stroke-width="1"/>
  <text id="amount" transform="matrix(1 0 0 1 40 73)" font-size="17" fill="rgba(0,255,0,1.0)" stroke="rgba(0,0,0,1.0)" stroke-width="0.5" font-family="InriaSans-Bold, Inria Sans" text-anchor="middle">0 ℓ</text>
  <text id="nickname" transform="matrix(1 0 0 1 40 12)" font-size="14" fill="rgba(255,255,255,0.6)" stroke="rgba(0,0,0,0.5)" stroke-width="0.2" font-family="InriaSans-Bold, Inria Sans" text-anchor="middle">Nickname</text>
</svg>
