<svg id="player" xmlns="http://www.w3.org/2000/svg">
  <circle id="bg" cx="46" cy="46" r="45" fill="rgba(17,17,17,0.9)"/>
  <circle id="chair" cx="46" cy="46" r="45" fill="none" stroke="rgba(255,255,255,0.26)" stroke-width="4"/>
  <g id="icon">
    <circle id="bg" cx="46" cy="46" r="45" fill="rgba(26,26,26,0.04)"/>
    <path
      id="spades"
      d="M49.128,57.009c-.256,3.308-1.336,22,10.361,27.423-10.624-2.485-22.649,2.41-22.649,2.41s8.845-6.8,8.916-29.262c-3.887,18-26.28,17.1-30.029,1.008s20.431-27.54,29.918-53.43c2.282,24.3,27.221,24.566,30.714,43.971S52.177,71.388,49.128,57.009Z"
      fill="rgba(255,255,255,0.04)"/>
  </g>
  <g id="addTime">
    <path
      id="clock"
      d="M107.386,87.2l-4.638-4.638a.952.952,0,0,0-1.346,0l-.832.832a.95.95,0,0,0,0,1.344l0,0,.69.69-.8.8a9.291,9.291,0,0,0-8.9,0l-.806-.8.69-.686a.95.95,0,0,0,0-1.344l0,0-.832-.836a.952.952,0,0,0-1.346,0L84.623,87.2a.947.947,0,0,0-.279.673.958.958,0,0,0,.279.673l.832.832a.95.95,0,0,0,1.344,0l0,0,.759-.759.669.669a9.31,9.31,0,1,0,15.548,0l.673-.677.759.759a.95.95,0,0,0,1.344,0l0,0,.832-.832a.952.952,0,0,0,0-1.342ZM96,101.464a7.052,7.052,0,1,1,7.051-7.055A7.052,7.052,0,0,1,96,101.464Z"
      fill="rgba(255,200,0,0.6)"
      stroke="rgba(30,5,0,0.6)"
      stroke-width="0.5"/>
    <path
      id="plus"
      d="M100.653,92.792H97.617V89.745a1.621,1.621,0,1,0-3.241-.081q0,.04,0,.081v3.047H91.34a1.621,1.621,0,1,0-.081,3.241h3.128V99.08a1.621,1.621,0,1,0,3.241.081q0-.04,0-.081V96.033h3.036a1.621,1.621,0,0,0,.069-3.241Z"
      fill="rgba(255,200,0,0.6)"
      stroke="rgba(30,5,0,0.6)"
      stroke-width="0.5"/>
    <path
      id="button"
      d="M96,105.054A10.641,10.641,0,0,1,85.912,90.988a2.272,2.272,0,0,1-1.409-.662l-.832-.832A2.3,2.3,0,0,1,83,87.875a2.279,2.279,0,0,1,.667-1.617l4.647-4.642a2.291,2.291,0,0,1,3.24,0h0l.834.838a2.286,2.286,0,0,1,.666,1.721,10.617,10.617,0,0,1,5.9,0v-.1a2.274,2.274,0,0,1,.672-1.627l.832-.832a2.291,2.291,0,0,1,3.24,0h0l4.638,4.638A2.312,2.312,0,0,1,109,87.892a2.266,2.266,0,0,1-.667,1.594l-.836.836a2.255,2.255,0,0,1-1.417.663A10.646,10.646,0,0,1,96,105.054Z"
      fill="rgba(0,0,0,0.26)"
      stroke="rgba(255,200,0,0.26)"

      stroke-width="0.5"/>
  </g>
  <g id="vipRoom">
    <path
      id="eloRight"
      d="M70.487,40.765q.987-1.139,4.416-1.139a18.613,18.613,0,0,1,1.891.087,2.879,2.879,0,0,0-.979.708,3.533,3.533,0,0,0-.646,1.252h-.082q-2.323,0-2.743.576t-.42,3.739q0,3.153.443,3.776t2.665.622q2.323,0,2.8-.553t.475-3.264q0-1.353-.056-2.288a3.9,3.9,0,0,1,.012-.6,2.758,2.758,0,0,1,.232-1.12c.01-.013.247-.307,1.868-.353h.005a18.924,18.924,0,0,1,.363,4.222q0,3.78-1.005,4.891t-4.435,1.111q-3.808,0-4.8-1.125T69.5,45.858Q69.5,41.9,70.487,40.765Z"
      fill="rgba(255,255,255,0.4)"/>
    <path
      id="eloLeft"
      d="M85.513,51.235q-.987,1.139-4.416,1.139a18.622,18.622,0,0,1-1.891-.087,2.879,2.879,0,0,0,.979-.708,3.533,3.533,0,0,0,.646-1.252h.082q2.323,0,2.743-.576t.42-3.739q0-3.153-.443-3.776t-2.665-.622q-2.323,0-2.8.553t-.475,3.264q0,1.546.073,2.548a3.549,3.549,0,0,1-.261,1.464c-.01.013-.248.307-1.873.354a18.9,18.9,0,0,1-.364-4.226q0-3.78,1.005-4.891t4.435-1.111q3.808,0,4.8,1.125t.991,5.449Q86.5,50.1,85.513,51.235Z"
      fill="rgba(255,255,255,0.4)"/>
  </g>
  <circle id="playerStatus" cx="46" cy="46" r="42.5" fill="rgba(0,0,0,0.03)" stroke="rgba(255,200,0,0.3)" stroke-width="3"/>
  <circle id="button" cx="46" cy="46" r="43" fill="rgba(0,0,0,0.26)" stroke="rgba(255,255,255,0.26)" stroke-width="1"/>
  <text id="amount" transform="matrix(1 0 0 1 46 78)" font-size="17" fill="rgba(0,255,0,1.0)" stroke="rgba(0,0,0,1.0)" stroke-width="0.5" font-family="InriaSans-Bold, Inria Sans" text-anchor="middle">0 ℓ</text>
  <text id="countdown" transform="matrix(1 0 0 1 86 73)" font-size="26" fill="rgba(0,255,0,1.0)" stroke="rgba(0,0,0,1.0)" stroke-width="0.5" font-family="InriaSans-BoldItalic, Inria Sans" text-anchor="start">00.0</text>
  <text id="bestDog" transform="matrix(1 0 0 1 86 73)" font-size="33" fill="rgba(0,170,0,0.6)" stroke="rgba(0,255,0,0.6)" stroke-width="0.5" font-family="InriaSans-BoldItalic, Inria Sans" text-anchor="start">000</text>
  <text id="nickname" transform="matrix(1 0 0 1 46 17)" font-size="14" fill="rgba(255,255,255,0.6)" stroke="rgba(0,0,0,0.5)" stroke-width="0.2" font-family="InriaSans-Bold, Inria Sans" text-anchor="middle">Nickname</text>
</svg>
